<svg width="255" height="192" viewBox="0 0 255 192" fill="none" xmlns="http://www.w3.org/2000/svg">
<g clip-path="url(#clip0_7_403)">
<path d="M96.6265 170.869C96.3803 170.869 96.135 170.826 95.8999 170.741L80.124 165.04C79.2 164.706 78.6521 163.86 78.7281 162.886C78.8045 161.911 79.4772 161.16 80.4423 160.972L124.014 152.49C124.365 152.421 124.732 152.443 125.072 152.551L137.247 156.431C138.173 156.726 138.753 157.54 138.726 158.507C138.699 159.473 138.073 160.254 137.132 160.497L97.1617 170.801C96.9855 170.847 96.8056 170.869 96.6265 170.869Z" fill="#FFCA82"/>
<path d="M140.967 143.026L179.759 147.662L172.687 161.223L138.485 156.286C135.669 158.272 131.755 159.157 127.687 158.404C120.567 157.086 115.684 151.269 116.781 145.41C117.877 139.551 124.538 135.87 131.657 137.187C135.726 137.94 139.058 140.166 140.967 143.026Z" fill="#ED9DA0"/>
<path d="M194.831 34.188C190.382 17.8207 173.432 8.13853 156.971 12.5622C140.511 16.9859 130.774 33.8403 135.222 50.2075C138.831 63.4815 150.661 72.3567 163.784 72.8784L179.838 109.192L202.594 76.9602C202.594 76.9602 194.065 70.6289 188.199 62.4816C194.799 55.013 197.635 44.5054 194.831 34.188Z" fill="#ED9DA0"/>
<path d="M226.058 97.5824C221.904 87.3648 211.959 80.6766 200.875 80.5704C186.897 80.4365 169.104 84.0714 168.37 103.281C167.155 135.088 168.37 122.286 168.37 122.286C168.37 122.286 158.72 146.179 168.37 157.703C178.02 169.227 186.435 191.941 186.435 191.941H245.076C245.076 191.941 234.953 165.338 236.691 147.188C237.871 134.868 232.243 112.791 226.058 97.5824Z" fill="#FFCA82"/>
<path d="M143.904 126.661L106.528 162.961L108.785 163.753L146.511 128.39C146.511 128.39 146.946 125.797 143.904 126.661Z" fill="#090814"/>
<path d="M254.929 108.737C253.322 111.617 248.683 111.454 246.394 109.074C244.105 106.694 243.722 103.065 244.081 99.7916C244.44 96.5176 245.411 93.2985 245.344 90.0059C245.216 83.7234 241.363 78.1376 237.13 73.4718C232.896 68.8063 228.056 64.5203 225.164 58.9332L224.815 58.5756C226.05 54.5173 223.054 50.3716 219.68 47.7782C216.306 45.1848 212.261 43.2072 209.957 39.6387C207.998 36.6031 207.602 32.8685 206.744 29.3634C203.421 15.783 191.934 4.51755 178.231 1.40172C164.529 -1.71412 149.259 3.46695 140.331 14.2615L140.545 13.814C134.745 14.9814 129.812 19.6609 128.365 25.3664C127.946 27.0191 127.807 28.796 128.364 30.4079C128.921 32.0198 130.28 33.4275 131.973 33.6945C133.789 33.9809 135.606 32.9184 136.725 31.4678C137.844 30.0171 138.401 28.2269 138.938 26.4784C140.954 33.8407 147.281 39.8643 154.766 41.5467C154.505 43.5459 155.422 45.6542 157.065 46.8348C158.709 48.0153 161.01 48.2186 162.837 47.3445L163.267 46.9369C165.381 47.0315 167.495 47.1261 169.609 47.2206C166.212 51.8229 164.81 57.8323 165.823 63.4518C166.835 69.0713 170.249 74.2226 175.043 77.365C178.872 79.8753 183.394 81.0826 187.838 82.2109C192.282 83.3394 196.814 84.4592 200.732 86.829C204.651 89.199 207.934 93.07 208.385 97.6083C208.837 102.147 205.689 107.102 201.132 107.623C204.599 109.739 208.066 111.856 211.533 113.973C211.224 121.78 217.052 129.397 224.702 131.183C224.002 133.52 223.302 135.856 222.602 138.193C226.857 136.688 231.515 138.059 236.008 138.514C240.501 138.97 245.949 137.886 247.675 133.736C249.511 129.324 246.006 124.646 242.745 121.141C249.383 121.8 255.747 115.32 254.929 108.737Z" fill="#090814"/>
<path d="M43.9634 121.652L43.946 121.213L41.3015 55.3003L44.2558 53.1856L44.415 53.1983L106.14 58.151L113.007 61.282L113.019 61.5449L115.675 117.561L43.9634 121.652ZM42.1885 55.7299L44.797 120.739L114.766 116.747L112.163 61.8483L105.916 59.0001L44.5045 54.0727L42.1885 55.7299Z" fill="#090814"/>
<path d="M1.53904 124L1.52898 123.743L0 85.2355L1.70811 84L1.80012 84.0074L37.4872 86.9009L41.4575 88.7301L41.4646 88.8837L43 121.61L1.53904 124ZM0.512848 85.4865L2.02096 123.466L42.4744 121.135L40.9697 89.061L37.3582 87.397L1.8519 84.5183L0.512848 85.4865Z" fill="#090814"/>
<path d="M118.539 117L118.529 116.743L117 78.2355L118.708 77L118.8 77.0074L154.487 79.9009L158.458 81.7301L158.465 81.8837L160 114.61L118.539 117ZM117.513 78.4865L119.021 116.466L159.474 114.135L157.97 82.061L154.358 80.397L118.852 77.5183L117.513 78.4865Z" fill="#090814"/>
<path d="M106.637 97.9238H51.1428C48.9715 97.9238 47.2051 96.1673 47.2051 94.0087V77.8034C47.2051 76.7272 47.6354 75.7241 48.4168 74.9784C49.1994 74.231 50.2303 73.8449 51.3126 73.8879L106.807 76.2694C108.919 76.3563 110.574 78.0743 110.574 80.1802V94.0087C110.574 96.1673 108.808 97.9238 106.637 97.9238Z" fill="#D6D6E3"/>
<path d="M37.763 109H6.23701C5.0035 109 4 108.05 4 106.883V98.1192C4 97.5372 4.24448 96.9947 4.68837 96.5915C5.13297 96.1873 5.71863 95.9785 6.33345 96.0018L37.8597 97.2896C39.0597 97.3366 40 98.2657 40 99.4045V106.883C40 108.05 38.9965 109 37.763 109Z" fill="#D6D6E3"/>
<path d="M154.763 102H123.237C122.003 102 121 101.05 121 99.8828V91.1192C121 90.5372 121.244 89.9947 121.688 89.5915C122.133 89.1873 122.719 88.9785 123.333 89.0018L154.86 90.2896C156.06 90.3366 157 91.2657 157 92.4045V99.8828C157 101.05 155.996 102 154.763 102Z" fill="#D6D6E3"/>
<path d="M73.9331 78.067V96.6059C73.9331 96.9862 73.8809 97.3578 73.781 97.7079H51.1427C49.0871 97.7079 47.4225 96.0527 47.4225 94.0087V77.8033C47.4225 75.6989 49.187 74.0178 51.3036 74.1042L72.5771 75.016C73.4115 75.768 73.9331 76.857 73.9331 78.067Z" fill="#FFCA82"/>
<path d="M19 98.184V108.393C19 108.603 18.9705 108.807 18.9139 109H6.10493C4.94182 109 4 108.089 4 106.963V98.0388C4 96.8799 4.99838 95.9542 6.19595 96.0018L18.2328 96.5039C18.7049 96.918 19 97.5177 19 98.184Z" fill="#FFCA82"/>
<path d="M136 91.184V101.393C136 101.603 135.97 101.807 135.914 102H123.105C121.942 102 121 101.089 121 99.9629V91.0388C121 89.8799 121.998 88.9542 123.196 89.0018L135.233 89.5039C135.705 89.918 136 90.5177 136 91.184Z" fill="#FFCA82"/>
<path d="M93.0966 82.1708H77.2914V83.0351H93.0966V82.1708Z" fill="#090814"/>
<path d="M105.442 86.9801H77.2914V87.8444H105.442V86.9801Z" fill="#090814"/>
<path d="M24.8847 27.3199L2.26086 25.0702L0 2.14172L22.1718 4.84135L24.8847 27.3199ZM3.05621 24.281L23.8924 26.3527L21.3901 5.61701L0.971061 3.13093L3.05621 24.281Z" fill="#090814"/>
<path d="M6.18007 8.68845L6.0906 9.54848L18.694 10.8449L18.7835 9.98488L6.18007 8.68845Z" fill="#090814"/>
<path d="M6.17586 12.2102L6.09481 13.071L18.6982 14.2442L18.7793 13.3834L6.17586 12.2102Z" fill="#090814"/>
<path d="M6.16998 15.2153L6.10069 16.0771L18.7041 17.0789L18.7734 16.2172L6.16998 15.2153Z" fill="#090814"/>
<path d="M111.805 39.4199L89.181 37.1702L86.9201 14.2417L109.092 16.9413L111.805 39.4199ZM89.9763 36.381L110.813 38.4527L108.31 17.717L87.8912 15.2309L89.9763 36.381Z" fill="#090814"/>
<path d="M93.1002 20.7884L93.0107 21.6485L105.614 22.9449L105.704 22.0849L93.1002 20.7884Z" fill="#090814"/>
<path d="M93.096 24.3101L93.0149 25.171L105.618 26.3442L105.699 25.4833L93.096 24.3101Z" fill="#090814"/>
<path d="M93.0901 27.3153L93.0208 28.177L105.624 29.1789L105.694 28.3171L93.0901 27.3153Z" fill="#090814"/>
<path d="M68.2752 30.35L43.1553 27.2178V0L68.7242 3.99647L68.2752 30.35ZM44.0245 26.4548L67.4221 29.3726L67.8423 4.73331L44.0245 1.01115V26.4548Z" fill="#090814"/>
<path d="M49.6477 9.12143L49.5431 9.97978L63.8849 11.7084L63.9895 10.85L49.6477 9.12143Z" fill="#090814"/>
<path d="M50.0747 13.8742L49.9853 14.7342L62.5887 16.0306L62.6782 15.1706L50.0747 13.8742Z" fill="#090814"/>
<path d="M113.699 62.5049L40.8834 57.0888V52.4036C40.8834 51.1891 41.4029 50.0251 42.3082 49.2102C43.2139 48.3953 44.4311 47.9969 45.6458 48.1181L109.798 54.4947C112.022 54.7154 113.699 56.5579 113.699 58.7802L113.699 62.5049Z" fill="#090814"/>
<path d="M42 89L0 85.9928V83.3914C0 82.717 0.299639 82.0707 0.821802 81.6183C1.34421 81.1658 2.0463 80.9446 2.74693 81.0119L39.75 84.5524C41.0328 84.675 42 85.698 42 86.9319L42 89Z" fill="#090814"/>
<path d="M158 82L117 78.9928V76.3914C117 75.717 117.293 75.0707 117.802 74.6183C118.312 74.1658 118.998 73.9446 119.682 74.0119L155.804 77.5524C157.056 77.675 158 78.698 158 79.9319L158 82Z" fill="#090814"/>
<path d="M47.6398 54.4936C48.4799 54.4936 49.1609 53.8164 49.1609 52.9811C49.1609 52.1458 48.4799 51.4686 47.6398 51.4686C46.7997 51.4686 46.1187 52.1458 46.1187 52.9811C46.1187 53.8164 46.7997 54.4936 47.6398 54.4936Z" fill="white"/>
<path d="M4 85C4.55228 85 5 84.5523 5 84C5 83.4477 4.55228 83 4 83C3.44771 83 3 83.4477 3 84C3 84.5523 3.44771 85 4 85Z" fill="white"/>
<path d="M7 85C7.55228 85 8 84.5523 8 84C8 83.4477 7.55228 83 7 83C6.44771 83 6 83.4477 6 84C6 84.5523 6.44771 85 7 85Z" fill="white"/>
<path d="M10 85C10.5523 85 11 84.5523 11 84C11 83.4477 10.5523 83 10 83C9.44771 83 9 83.4477 9 84C9 84.5523 9.44771 85 10 85Z" fill="white"/>
<path d="M127 78C127.552 78 128 77.5523 128 77C128 76.4477 127.552 76 127 76C126.448 76 126 76.4477 126 77C126 77.5523 126.448 78 127 78Z" fill="white"/>
<path d="M123 78C123.552 78 124 77.5523 124 77C124 76.4477 123.552 76 123 76C122.448 76 122 76.4477 122 77C122 77.5523 122.448 78 123 78Z" fill="white"/>
<path d="M119 78C119.552 78 120 77.5523 120 77C120 76.4477 119.552 76 119 76C118.448 76 118 76.4477 118 77C118 77.5523 118.448 78 119 78Z" fill="white"/>
<path d="M52.855 55.3579C53.6951 55.3579 54.3761 54.6807 54.3761 53.8454C54.3761 53.01 53.6951 52.3329 52.855 52.3329C52.0149 52.3329 51.3339 53.01 51.3339 53.8454C51.3339 54.6807 52.0149 55.3579 52.855 55.3579Z" fill="white"/>
<path d="M57.6356 55.79C58.4757 55.79 59.1567 55.1128 59.1567 54.2775C59.1567 53.4422 58.4757 52.765 57.6356 52.765C56.7956 52.765 56.1145 53.4422 56.1145 54.2775C56.1145 55.1128 56.7956 55.79 57.6356 55.79Z" fill="white"/>
<path d="M127.421 164.716L165.196 174.639L156.307 187.098L123.119 177.508C120.054 179.088 116.055 179.426 112.13 178.121C105.262 175.838 101.235 169.405 103.135 163.753C105.035 158.101 112.144 155.371 119.012 157.654C122.937 158.959 125.927 161.621 127.421 164.716Z" fill="#ED9DA0"/>
<path d="M202.594 122.286C202.594 122.286 200.944 194.344 177.313 191.941C153.682 189.538 145.86 186.513 145.86 186.513C145.86 186.513 141.079 168.363 149.336 167.931C157.594 167.499 168.37 165.478 168.37 165.478V113.215" fill="#FFCA82"/>
</g>
<defs>
<clipPath id="clip0_7_403">
<rect width="255" height="192" fill="white"/>
</clipPath>
</defs>
</svg>
